<?xml version="1.0" encoding="UTF-8" standalone="no"?>
<!-- Created with Inkscape (http://www.inkscape.org/) -->

<svg
   xmlns:dc="http://purl.org/dc/elements/1.1/"
   xmlns:cc="http://creativecommons.org/ns#"
   xmlns:rdf="http://www.w3.org/1999/02/22-rdf-syntax-ns#"
   xmlns:svg="http://www.w3.org/2000/svg"
   xmlns="http://www.w3.org/2000/svg"
   xmlns:sodipodi="http://sodipodi.sourceforge.net/DTD/sodipodi-0.dtd"
   xmlns:inkscape="http://www.inkscape.org/namespaces/inkscape"
   width="46"
   height="46"
   viewBox="0 0 46.000001 46.000001"
   id="svg6309"
   version="1.1"
   inkscape:version="0.91 r13725"
   sodipodi:docname="fullgb.svg">
  <defs
     id="defs6311" />
  <sodipodi:namedview
     id="base"
     pagecolor="#ffffff"
     bordercolor="#666666"
     borderopacity="1.0"
     inkscape:pageopacity="0.0"
     inkscape:pageshadow="2"
     inkscape:zoom="5.6"
     inkscape:cx="19.840258"
     inkscape:cy="38.9845"
     inkscape:document-units="px"
     inkscape:current-layer="layer1"
     showgrid="false"
     units="px"
     inkscape:window-width="913"
     inkscape:window-height="1042"
     inkscape:window-x="929"
     inkscape:window-y="0"
     inkscape:window-maximized="0" />
  <metadata
     id="metadata6314">
    <rdf:RDF>
      <cc:Work
         rdf:about="">
        <dc:format>image/svg+xml</dc:format>
        <dc:type
           rdf:resource="http://purl.org/dc/dcmitype/StillImage" />
        <dc:title></dc:title>
      </cc:Work>
    </rdf:RDF>
  </metadata>
  <g
     inkscape:label="Layer 1"
     inkscape:groupmode="layer"
     id="layer1"
     transform="translate(0,-1006.3622)">
    <path
       inkscape:connector-curvature="0"
       id="path4843"
       d="M 21.037082,1046.2938 C 19.826752,1046.1119 18.889182,1045.9158 18.003892,1045.6594 L 16.992822,1045.3666 16.992822,1044.3937 C 16.992822,1043.4526 17.003052,1043.4237 17.306612,1043.5064 18.319482,1043.7823 20.944232,1043.9082 22.451132,1043.7531 23.322462,1043.6634 24.167322,1043.5544 24.328532,1043.5108 24.594392,1043.439 24.629062,1043.5032 24.700892,1044.1997 24.744452,1044.6221 24.903932,1045.2478 25.055332,1045.5903 L 25.330532,1046.213 24.822442,1046.2971 C 24.287652,1046.3856 21.632402,1046.3833 21.037082,1046.2938 Z M 25.522032,1045.512 C 25.367222,1045.1857 25.198492,1044.5655 25.147022,1044.1336 L 25.053502,1043.3484 25.799562,1043.1722 C 27.165152,1042.8497 28.898022,1042.188 30.621372,1041.3309 32.090482,1040.6003 32.357602,1040.5089 32.552082,1040.6704 32.859442,1040.9257 33.585262,1042.2116 33.586872,1042.5037 33.590132,1043.0947 29.931872,1045.106 27.680542,1045.751 25.974012,1046.2399 25.861572,1046.2275 25.522032,1045.512 Z M 15.249623,1044.5253 C 13.422403,1043.5651 12.402133,1042.7989 10.856733,1041.2261 9.239503,1039.5803 8.235733,1038.0998 7.362133,1036.072 5.761243,1032.3559 5.559383,1027.8926 6.820643,1024.0997 L 7.108443,1023.2342 7.832083,1023.7833 C 8.230073,1024.0852 8.806153,1024.4161 9.112253,1024.5186 L 9.668793,1024.7048 9.684673,1027.764 C 9.707353,1032.1386 10.220353,1034.8404 11.497733,1037.3127 12.348603,1038.9596 13.249883,1040.1066 15.048193,1041.8311 L 16.592162,1043.3117 16.478712,1044.2116 16.365292,1045.1115 15.249623,1044.5253 Z M 17.977102,1043.1593 C 17.189442,1043.0394 16.966012,1042.9299 16.164172,1042.2707 15.661183,1041.8572 14.983053,1041.2454 14.657243,1040.9111 L 14.064893,1040.3034 15.391623,1040.1252 C 16.707102,1039.9485 16.726302,1039.9502 17.657472,1040.3272 19.065982,1040.8974 20.020992,1040.8623 21.378902,1040.1907 23.835902,1038.9755 25.199312,1036.7517 25.054952,1034.1948 L 24.999882,1033.2195 24.238732,1032.537 C 23.151442,1031.5621 21.756612,1030.8929 20.811982,1030.8929 19.450872,1030.8929 18.274272,1031.5723 17.954152,1032.543 17.590432,1033.6459 18.148002,1035.9156 18.979752,1036.718 19.502322,1037.2221 21.491952,1038.5788 21.579792,1038.4909 21.612212,1038.4584 21.683412,1038.1372 21.738032,1037.777 21.873982,1036.8806 21.589932,1036.3001 20.341572,1034.9232 18.980942,1033.4225 18.763582,1032.534 19.645472,1032.0777 20.182682,1031.7996 20.246582,1031.8094 20.768382,1032.2488 22.221142,1033.4721 23.060612,1036.6055 22.312632,1038.0127 21.934492,1038.7242 21.059562,1039.292 20.216722,1039.373 18.615852,1039.527 17.210012,1038.011 15.679423,1034.4802 14.489043,1031.7342 14.251223,1028.7724 15.141993,1027.7874 15.351113,1027.5562 15.377913,1027.566 15.618333,1027.9616 15.758443,1028.1922 15.968143,1028.3808 16.084312,1028.3808 16.435582,1028.3808 16.853382,1027.8501 16.853382,1027.4039 16.853382,1027.0402 16.903712,1026.9852 17.236882,1026.9853 18.117542,1026.9856 19.969282,1028.1525 21.626542,1029.7516 21.989112,1030.1014 22.308292,1030.36 22.335842,1030.3263 22.363392,1030.2925 22.560302,1029.6403 22.773442,1028.877 23.063272,1027.8389 23.301752,1027.3024 23.719522,1026.7487 24.026722,1026.3414 24.301352,1026.0083 24.329802,1026.0083 24.435332,1026.0083 25.781192,1028.8092 26.523532,1030.5737 27.499452,1032.8934 28.009922,1034.5107 28.009922,1035.283 28.009922,1035.8521 27.971602,1035.9131 27.405552,1036.245 26.356292,1036.8604 25.523532,1037.958 25.091622,1039.2947 24.828502,1040.109 25.354402,1040.7741 26.111212,1040.584 26.546712,1040.4746 26.653052,1040.0527 26.369652,1039.5586 26.181392,1039.2303 26.173692,1039.1016 26.321042,1038.7455 26.642152,1037.9698 27.194482,1037.6372 30.101762,1036.4693 33.968252,1034.9159 34.312432,1034.7406 35.055172,1033.9459 35.655322,1033.3039 36.377322,1031.9801 36.377322,1031.5219 36.377322,1031.4116 36.508372,1031.2512 36.668572,1031.1654 36.828752,1031.0796 37.197742,1030.7943 37.488522,1030.5314 L 38.017222,1030.0534 38.116512,1031.6438 C 38.171132,1032.5185 38.171382,1033.6493 38.117082,1034.1568 L 38.018342,1035.0794 36.456392,1036.5799 C 33.179372,1039.7279 29.322592,1041.8818 25.222732,1042.8535 24.021402,1043.1383 23.315572,1043.2097 21.316002,1043.2486 19.973732,1043.2747 18.471232,1043.2345 17.977102,1043.1593 Z M 33.822672,1041.8013 C 33.699912,1041.4943 33.400322,1041.016 33.156902,1040.7386 32.913482,1040.4612 32.738372,1040.2127 32.767752,1040.1864 32.797142,1040.1601 33.480092,1039.6442 34.285462,1039.04 35.090832,1038.4358 36.306652,1037.3904 36.987282,1036.7169 38.121022,1035.595 38.240512,1035.5131 38.412282,1035.7396 38.676302,1036.0879 38.673882,1036.0979 38.019762,1037.3561 37.284422,1038.7706 36.125052,1040.3263 34.949412,1041.476 L 34.045912,1042.3596 33.822672,1041.8013 Z M 12.998373,1038.9537 C 12.128263,1037.782 11.229083,1035.8413 10.856873,1034.3315 L 10.551993,1033.0948 11.075253,1032.6568 C 11.363033,1032.4159 11.761073,1032.1124 11.959773,1031.9824 L 12.321033,1031.7461 12.277283,1032.6803 C 12.253223,1033.194 12.292933,1034.2015 12.365533,1034.9191 L 12.497493,1036.2238 13.931333,1037.5707 C 14.719963,1038.3116 15.549793,1039.0549 15.775433,1039.2226 L 16.185632,1039.5275 15.717633,1039.5991 C 15.460243,1039.6384 14.889043,1039.7058 14.448313,1039.7489 L 13.647003,1039.8271 12.998373,1038.9537 Z M 38.687922,1035.3744 C 38.637532,1035.2928 38.577522,1034.0469 38.554552,1032.6059 38.448782,1025.9664 36.838412,1021.5309 33.385172,1018.3679 32.049652,1017.1447 29.880372,1015.7676 28.881512,1015.509 28.599912,1015.4361 28.567742,1015.3417 28.567742,1014.5887 28.567742,1014.1273 28.526052,1013.641 28.475092,1013.5081 28.395642,1013.3009 28.440092,1013.2809 28.786582,1013.3679 29.008902,1013.4238 29.646082,1013.68 30.202592,1013.9373 33.496402,1015.4603 36.541932,1018.4127 38.189482,1021.68 40.093282,1025.4555 40.521612,1030.0358 39.351172,1034.1028 38.996982,1035.3336 38.843932,1035.627 38.687922,1035.3744 Z M 30.896162,1033.3003 C 30.202462,1031.9372 28.707192,1028.6141 28.707192,1028.4355 28.707192,1028.3951 28.829012,1028.4007 28.977892,1028.448 29.126762,1028.4953 29.711982,1028.3739 30.278342,1028.1783 31.616352,1027.7161 32.078332,1027.7217 32.610992,1028.2064 33.254302,1028.7918 34.000802,1030.74 34.004002,1031.8419 34.006802,1032.8077 33.820882,1033.2809 33.217122,1033.8444 32.819182,1034.2158 31.925102,1034.7991 31.752322,1034.8001 31.701362,1034.8004 31.316092,1034.1255 30.896162,1033.3003 Z M 10.342303,1031.7531 C 10.280083,1031.3184 10.229173,1029.5263 10.229173,1027.7708 L 10.229173,1024.5788 11.257593,1023.6148 C 14.038773,1021.0078 19.775752,1018.1903 25.863252,1016.4419 27.053422,1016.1 28.134922,1015.8203 28.266542,1015.8203 28.579342,1015.8203 30.305852,1016.6512 31.245062,1017.2537 32.949552,1018.3473 35.368652,1020.8813 34.957222,1021.1423 34.856222,1021.2064 34.283052,1021.4234 33.683572,1021.6244 L 32.593562,1021.9901 31.800902,1021.5692 C 30.760242,1021.0167 29.483032,1020.6557 28.902672,1020.7499 28.646972,1020.7914 27.870742,1021.0809 27.177712,1021.3932 26.484712,1021.7055 25.893502,1021.961 25.863942,1021.961 25.834372,1021.961 25.735342,1021.5685 25.643852,1021.0888 25.415462,1019.8912 24.825992,1018.7515 24.265572,1018.4239 23.833322,1018.1713 23.786412,1018.1701 23.192342,1018.3972 22.618792,1018.6164 22.360062,1018.8907 22.726822,1018.8907 22.817572,1018.8907 22.849802,1019.016 22.804012,1019.1912 22.760822,1019.3564 22.816912,1019.6686 22.928662,1019.8848 23.301792,1020.6069 23.979952,1020.7256 24.170842,1020.1021 24.256842,1019.8213 24.281222,1019.8355 24.486622,1020.2863 24.609062,1020.5549 24.736732,1021.1549 24.770312,1021.6195 L 24.831382,1022.4642 23.297252,1023.1788 C 21.008252,1024.245 19.667182,1024.3468 19.416822,1023.4732 19.348042,1023.2332 19.192132,1022.9739 19.070362,1022.897 18.720762,1022.6763 18.150822,1022.8897 18.053522,1023.2776 17.907312,1023.8606 18.219572,1024.2827 19.084482,1024.6711 20.042172,1025.1012 21.106402,1025.1438 22.327742,1024.8009 23.115522,1024.5796 23.159332,1024.581 23.414062,1024.836 23.675022,1025.0971 23.667682,1025.1174 22.980962,1026.0351 L 22.282402,1026.9686 21.317532,1026.5577 C 19.070972,1025.601 17.639782,1025.5357 15.805523,1026.3062 13.969693,1027.0774 13.144803,1028.0734 12.569673,1030.213 12.332563,1031.0952 12.277833,1031.1706 11.388233,1031.8408 L 10.455443,1032.5435 10.342303,1031.7531 Z M 36.739602,1029.8932 C 36.912302,1028.4038 36.803672,1028.1934 35.378112,1027.2567 34.170842,1026.4633 34.076662,1026.427 33.230522,1026.427 L 32.345572,1026.427 32.712122,1025.4849 C 32.994682,1024.7587 33.081112,1024.2831 33.089372,1023.4089 L 33.100092,1022.2749 34.268332,1021.8942 C 35.615032,1021.4553 35.416192,1021.333 36.305622,1023.1473 37.019602,1024.6037 37.384072,1025.8417 37.708632,1027.913 L 37.940742,1029.3944 37.294362,1030.039 36.647942,1030.6836 36.739602,1029.8932 Z M 29.265022,1027.2694 C 29.265022,1027.1934 29.100532,1027.0233 28.899472,1026.8915 28.551262,1026.6632 28.524892,1026.6642 28.343092,1026.913 28.238142,1027.0566 28.130082,1027.1474 28.102992,1027.1146 27.999262,1026.989 27.048582,1024.506 26.816952,1023.7555 26.683302,1023.3225 26.611642,1022.8697 26.657772,1022.7495 26.703862,1022.6293 27.084612,1022.4311 27.503882,1022.3091 28.180822,1022.1122 28.321122,1022.1103 28.756962,1022.2926 29.348672,1022.54 29.988582,1023.3866 30.384692,1024.4461 30.733062,1025.3779 30.792702,1026.4938 30.509192,1026.7753 30.229092,1027.0534 29.265022,1027.4363 29.265022,1027.2694 Z M 9.076403,1023.9886 C 8.142403,1023.5535 7.370323,1022.9664 7.370323,1022.6913 7.370323,1021.9783 9.627553,1018.6199 11.031813,1017.2435 L 11.786793,1016.5035 12.436653,1017.6227 C 12.794063,1018.2383 13.454093,1019.1334 13.903393,1019.6118 L 14.720273,1020.4815 13.311473,1021.4127 C 12.536633,1021.9249 11.444583,1022.7916 10.884703,1023.3387 10.324853,1023.8859 9.8541634,1024.3329 9.8387734,1024.3322 9.8234034,1024.3314 9.480333,1024.1768 9.076403,1023.9886 Z M 14.733473,1019.8565 C 13.925493,1019.253 12.114813,1016.4333 12.320913,1016.0996 12.486153,1015.832 14.767193,1014.404 15.753983,1013.9504 17.009632,1013.3731 18.815052,1012.7954 19.751922,1012.671 L 20.446772,1012.5787 20.882542,1013.7095 C 21.418902,1015.1014 21.625642,1016.0319 21.568722,1016.7979 L 21.525182,1017.3838 20.060872,1017.974 C 19.255502,1018.2986 17.850042,1018.9203 16.937582,1019.3555 16.025122,1019.7907 15.240673,1020.1447 15.194373,1020.1423 15.148063,1020.1398 14.940663,1020.0112 14.733473,1019.8565 Z M 22.013272,1016.4889 C 22.013272,1015.6502 21.706152,1014.4053 21.237712,1013.3453 21.048672,1012.9175 20.923452,1012.538 20.959462,1012.502 21.121852,1012.3395 23.625832,1012.311 24.883522,1012.4573 26.362412,1012.6293 27.689022,1012.9312 27.901772,1013.1441 28.047442,1013.2899 28.127012,1015.1911 27.993042,1015.3253 27.945422,1015.3731 27.335932,1015.5649 26.638602,1015.7517 25.941302,1015.9384 24.615342,1016.3378 23.692022,1016.6391 L 22.013272,1017.187 22.013272,1016.4889 Z"
       style="fill:#000000" />
  </g>
</svg>
