<?xml version="1.0" encoding="UTF-8" standalone="no"?>
<!-- Created with Inkscape (http://www.inkscape.org/) -->

<svg
   xmlns:dc="http://purl.org/dc/elements/1.1/"
   xmlns:cc="http://creativecommons.org/ns#"
   xmlns:rdf="http://www.w3.org/1999/02/22-rdf-syntax-ns#"
   xmlns:svg="http://www.w3.org/2000/svg"
   xmlns="http://www.w3.org/2000/svg"
   xmlns:sodipodi="http://sodipodi.sourceforge.net/DTD/sodipodi-0.dtd"
   xmlns:inkscape="http://www.inkscape.org/namespaces/inkscape"
   width="46"
   height="46"
   viewBox="0 0 46.000001 46.000001"
   id="svg6309"
   version="1.1"
   inkscape:version="0.91 r13725"
   sodipodi:docname="fullgbgb.svg">
  <defs
     id="defs6311" />
  <sodipodi:namedview
     id="base"
     pagecolor="#ffffff"
     bordercolor="#666666"
     borderopacity="1.0"
     inkscape:pageopacity="0.0"
     inkscape:pageshadow="2"
     inkscape:zoom="5.6"
     inkscape:cx="19.840258"
     inkscape:cy="38.9845"
     inkscape:document-units="px"
     inkscape:current-layer="layer1"
     showgrid="false"
     units="px"
     inkscape:window-width="913"
     inkscape:window-height="1042"
     inkscape:window-x="929"
     inkscape:window-y="0"
     inkscape:window-maximized="0" />
  <metadata
     id="metadata6314">
    <rdf:RDF>
      <cc:Work
         rdf:about="">
        <dc:format>image/svg+xml</dc:format>
        <dc:type
           rdf:resource="http://purl.org/dc/dcmitype/StillImage" />
        <dc:title></dc:title>
      </cc:Work>
    </rdf:RDF>
  </metadata>
  <g
     inkscape:label="Layer 1"
     inkscape:groupmode="layer"
     id="layer1"
     transform="translate(0,-1006.3622)">
    <g
       id="g4964"
       transform="translate(-309.21429,681.89284)">
      <path
         inkscape:connector-curvature="0"
         id="path4843-4-3"
         d="M 321.1751,356.43315 C 320.53435,356.33684 320.03798,356.23304 319.56928,356.09732 L 319.03402,355.94229 319.03402,355.42724 C 319.03402,354.92896 319.03945,354.91366 319.20015,354.95744 319.73637,355.10354 321.12595,355.17016 321.92372,355.08806 322.38501,355.04059 322.83228,354.98286 322.91763,354.95982 323.05838,354.9218 323.07674,354.95577 323.11477,355.32449 323.13783,355.5481 323.22225,355.8794 323.30241,356.0607 L 323.4481,356.39036 323.17911,356.43488 C 322.89599,356.48172 321.49028,356.48053 321.1751,356.43315 Z M 323.54949,356.01922 C 323.46753,355.84652 323.37821,355.51815 323.35095,355.28953 L 323.30144,354.87381 323.69642,354.78054 C 324.41937,354.60981 325.33677,354.25948 326.24913,353.80574 327.0269,353.41892 327.16832,353.37052 327.27128,353.45605 327.434,353.59119 327.81825,354.27196 327.8191,354.42662 327.82083,354.73949 325.8841,355.8043 324.69222,356.1458 323.78877,356.40464 323.72924,356.39804 323.54949,356.01922 Z M 318.11115,355.49686 C 317.14381,354.98857 316.60365,354.5829 315.78552,353.75026 314.92933,352.87893 314.39793,352.09516 313.93543,351.0216 313.08789,349.05428 312.98102,346.69136 313.64877,344.68332 L 313.80112,344.22513 314.18421,344.51581 C 314.39492,344.67566 314.6999,344.85082 314.86197,344.90507 L 315.1566,345.00369 315.165,346.62325 C 315.17701,348.9392 315.44859,350.36956 316.12485,351.67846 316.57532,352.55033 317.05248,353.15756 318.00452,354.07053 L 318.82191,354.85437 318.76185,355.3308 318.70181,355.80722 318.11115,355.49686 Z M 319.55511,354.7737 C 319.13811,354.71024 319.01983,354.65227 318.59533,354.30328 318.32904,354.08438 317.97003,353.76047 317.79753,353.5835 L 317.48394,353.26177 318.18633,353.16741 C 318.88275,353.07388 318.89293,353.07478 319.3859,353.27434 320.13158,353.5762 320.63717,353.55766 321.35606,353.20211 322.65682,352.55875 323.37862,351.38142 323.30221,350.0278 L 323.27306,349.51143 322.8701,349.15012 C 322.29447,348.63403 321.55603,348.27974 321.05594,348.27974 320.33534,348.27974 319.71243,348.63939 319.54296,349.1533 319.3504,349.7372 319.64559,350.93878 320.08593,351.36358 320.36258,351.63046 321.4159,352.34872 321.46243,352.30219 321.47958,352.285 321.51728,352.11494 321.5462,351.92426 321.61817,351.44966 321.46779,351.14236 320.80689,350.41343 320.08656,349.61894 319.97149,349.14857 320.43837,348.90694 320.72277,348.75977 320.7566,348.76492 321.03285,348.99755 321.80196,349.64519 322.24638,351.30404 321.8504,352.04904 321.65021,352.42569 321.187,352.7263 320.74078,352.76922 319.89327,352.85072 319.14901,352.04811 318.33868,350.17887 317.70849,348.72512 317.58258,347.15713 318.05417,346.63563 318.16488,346.51322 318.17907,346.51841 318.30635,346.72786 318.38052,346.84993 318.49154,346.9498 318.55305,346.9498 318.739,346.9498 318.9602,346.66885 318.9602,346.4326 318.9602,346.24004 318.98685,346.21095 319.16324,346.21101 319.62946,346.21113 320.60979,346.82891 321.48717,347.67549 321.67911,347.8607 321.84808,347.99762 321.86269,347.97974 321.87727,347.96187 321.98151,347.61661 322.09436,347.21246 322.24779,346.66292 322.37404,346.37888 322.59522,346.08572 322.75785,345.87014 322.90324,345.69374 322.91831,345.69374 322.97416,345.69374 323.68669,347.17658 324.0797,348.11074 324.59636,349.33883 324.8666,350.19506 324.8666,350.60392 324.8666,350.90518 324.84632,350.93746 324.54664,351.11322 323.99115,351.43899 323.55029,352.02004 323.32162,352.72772 323.18233,353.15887 323.46074,353.51095 323.86141,353.4103 324.09196,353.35239 324.14826,353.12906 323.99823,352.86746 323.89856,352.69365 323.89448,352.62549 323.97249,352.43698 324.14249,352.02631 324.4349,351.85024 325.97404,351.23191 328.021,350.40956 328.20322,350.31674 328.59644,349.89604 328.91416,349.55612 329.2964,348.85532 329.2964,348.61273 329.2964,348.55436 329.36578,348.46943 329.4506,348.424 329.53539,348.37858 329.73074,348.22755 329.88467,348.08837 L 330.16457,347.83531 330.21716,348.67724 C 330.24605,349.14032 330.24619,349.739 330.21746,350.00767 L 330.16518,350.49614 329.33826,351.29048 C 327.60338,352.95705 325.56154,354.09735 323.39103,354.61184 322.75503,354.76261 322.38137,354.80037 321.32276,354.82096 320.61215,354.83479 319.81671,354.81351 319.55511,354.7737 Z M 327.94394,354.05478 C 327.87896,353.89221 327.72035,353.63902 327.59148,353.49214 327.4626,353.34526 327.3699,353.21372 327.38546,353.1998 327.40101,353.18589 327.76257,352.91278 328.18894,352.5929 328.61531,352.273 329.25899,351.71956 329.61932,351.36301 330.21954,350.76908 330.2828,350.7257 330.37373,350.84563 330.51351,351.03001 330.51223,351.03531 330.16593,351.70143 329.77664,352.45028 329.16285,353.27389 328.54046,353.88255 L 328.06211,354.35034 327.94394,354.05478 Z M 316.91931,352.54723 C 316.45866,351.92692 315.98264,350.89945 315.78559,350.10016 L 315.62418,349.44544 315.9012,349.21355 C 316.05355,349.08601 316.26428,348.92535 316.36947,348.85654 L 316.56072,348.73144 316.53757,349.22597 C 316.52483,349.49798 316.54585,350.03133 316.5843,350.41123 L 316.65414,351.10197 317.41323,351.81504 C 317.83075,352.20726 318.27007,352.60078 318.38952,352.68957 L 318.60669,352.85101 318.35892,352.88888 C 318.22266,352.90971 317.92026,352.9454 317.68693,352.9682 L 317.26272,353.00962 316.91931,352.54723 Z M 330.51965,350.65227 C 330.49299,350.60907 330.46121,349.94953 330.44905,349.1866 330.39306,345.67156 329.54051,343.32338 327.71233,341.64885 327.00529,341.00124 325.85684,340.27221 325.32802,340.1353 325.17896,340.0967 325.16192,340.04674 325.16192,339.6481 325.16192,339.40381 325.13985,339.14635 325.11287,339.07599 325.0708,338.96632 325.09434,338.95573 325.27778,339.00181 325.39548,339.03137 325.7328,339.16702 326.02743,339.30322 327.77121,340.10951 329.38355,341.67255 330.25577,343.40234 331.26368,345.40112 331.49044,347.82597 330.87079,349.97911 330.68327,350.63067 330.60225,350.78601 330.51965,350.65227 Z M 326.39462,349.55426 C 326.02736,348.8326 325.23574,347.07331 325.23574,346.97878 325.23574,346.95736 325.30025,346.96033 325.37906,346.98536 325.45786,347.01039 325.76769,346.94614 326.06752,346.84257 326.77589,346.5979 327.02047,346.60085 327.30247,346.85744 327.64304,347.16735 328.03823,348.19879 328.03994,348.78213 328.04141,349.29344 327.94299,349.54394 327.62336,349.84227 327.41269,350.0389 326.93934,350.34775 326.84787,350.34825 326.8209,350.34841 326.61693,349.99111 326.39462,349.55426 Z M 315.51315,348.73514 C 315.48021,348.50498 315.45327,347.55625 315.45327,346.62682 L 315.45327,344.93697 315.99774,344.42661 C 317.47011,343.04647 320.50735,341.55484 323.73014,340.62917 324.36022,340.44819 324.93278,340.30011 325.00246,340.30011 325.16806,340.30011 326.08209,340.74001 326.57933,341.05899 327.4817,341.63792 328.7624,342.97948 328.54457,343.11767 328.49111,343.15159 328.18767,343.26644 327.87029,343.37289 L 327.29324,343.56646 326.8736,343.34366 C 326.32266,343.05116 325.64649,342.86001 325.33923,342.90992 325.20387,342.93189 324.79292,343.08517 324.42602,343.25048 324.05915,343.4158 323.74614,343.55108 323.7305,343.55108 323.71484,343.55108 323.66241,343.34329 323.61398,343.08931 323.49306,342.45528 323.18098,341.85192 322.8843,341.6785 322.65547,341.54475 322.63063,341.54415 322.31612,341.66435 322.01247,341.78038 321.8755,341.92561 322.06966,341.92561 322.11771,341.92561 322.13478,341.99196 322.11052,342.08469 322.08766,342.17218 322.11736,342.33745 322.17653,342.45193 322.37407,342.83421 322.73309,342.89703 322.83416,342.56697 322.87969,342.41828 322.89258,342.4258 323.00133,342.66444 323.06614,342.80668 323.13374,343.1243 323.15151,343.37026 L 323.18385,343.81748 322.37166,344.19579 C 321.15985,344.76027 320.44987,344.81414 320.31732,344.35162 320.28091,344.22458 320.19836,344.08731 320.1339,344.04662 319.94882,343.92979 319.64708,344.04272 319.59556,344.24811 319.51816,344.55675 319.68349,344.7802 320.14137,344.98585 320.64838,345.21356 321.21181,345.23609 321.85839,345.05452 322.27545,344.9374 322.29865,344.93816 322.4335,345.07312 322.57166,345.21139 322.56777,345.22213 322.20422,345.70796 L 321.83439,346.20217 321.32356,345.98462 C 320.13422,345.47811 319.37654,345.44355 318.40545,345.85148 317.43354,346.25977 316.99683,346.78702 316.69236,347.91979 316.56684,348.38683 316.53786,348.42674 316.06689,348.78155 L 315.57306,349.15359 315.51315,348.73514 Z M 329.4882,347.75047 C 329.57962,346.96198 329.52212,346.8506 328.76741,346.35466 328.12827,345.93467 328.07841,345.91541 327.63045,345.91541 L 327.16195,345.91541 327.356,345.41668 C 327.50559,345.03223 327.55136,344.78041 327.55573,344.3176 L 327.56141,343.71728 328.17989,343.5157 C 328.89284,343.28335 328.78757,343.21861 329.25845,344.1791 329.63643,344.95012 329.82939,345.60554 330.00122,346.70216 L 330.1241,347.48642 329.78189,347.82766 329.43968,348.16892 329.4882,347.75047 Z M 325.53106,346.36142 C 325.53106,346.32117 325.44399,346.23115 325.33754,346.16134 325.1532,346.04047 325.13924,346.04101 325.04299,346.17272 324.98742,346.24877 324.93021,346.2968 324.91587,346.27945 324.86096,346.21298 324.35767,344.89841 324.23504,344.50111 324.16428,344.27184 324.12633,344.03217 324.15077,343.96851 324.17516,343.90486 324.37672,343.79995 324.5987,343.73536 324.95708,343.63111 325.03136,343.63013 325.2621,343.72661 325.57534,343.85758 325.91414,344.30581 326.12384,344.86671 326.30826,345.36001 326.33984,345.95078 326.18974,346.09982 326.04146,346.24706 325.53106,346.44976 325.53106,346.36142 Z M 314.84299,344.62454 C 314.34852,344.39415 313.93976,344.08334 313.93976,343.93771 313.93976,343.56026 315.13477,341.78225 315.87819,341.05357 L 316.27789,340.66179 316.62194,341.25435 C 316.81116,341.58026 317.16057,342.05413 317.39844,342.30736 L 317.8309,342.76783 317.08508,343.2608 C 316.67486,343.53194 316.09671,343.99077 315.80031,344.28045 315.50394,344.57012 315.25473,344.8068 315.2466,344.8064 315.23844,344.80599 315.05683,344.72417 314.84299,344.62454 Z M 317.8379,342.43692 C 317.41014,342.11741 316.45155,340.62467 316.56067,340.448 316.64815,340.30634 317.85574,339.55033 318.37817,339.31015 319.04292,339.00455 319.99874,338.69869 320.49472,338.63283 L 320.86258,338.584 321.09329,339.18265 C 321.37724,339.91953 321.48669,340.41217 321.45656,340.81768 L 321.4335,341.12785 320.65828,341.44033 C 320.23191,341.61218 319.48784,341.94129 319.00478,342.17168 318.52172,342.40207 318.10641,342.58952 318.0819,342.58821 318.05738,342.58694 317.94758,342.51885 317.8379,342.43692 Z M 321.6919,340.6541 C 321.6919,340.21004 321.5293,339.55098 321.28131,338.98981 321.18123,338.76333 321.11494,338.56243 321.13401,338.54336 321.21998,338.45733 322.54562,338.44223 323.21145,338.51967 323.99439,338.61079 324.69672,338.77059 324.80935,338.88334 324.88647,338.96053 324.92859,339.96699 324.85767,340.03806 324.83246,340.06334 324.50979,340.16491 324.14061,340.26378 323.77144,340.36264 323.06948,340.57407 322.58066,340.73361 L 321.6919,341.02369 321.6919,340.6541 Z"
         style="fill:#000000" />
      <path
         inkscape:connector-curvature="0"
         id="path4843-4-3-0"
         d="M 341.1751,356.43315 C 340.53435,356.33684 340.03798,356.23304 339.56928,356.09732 L 339.03402,355.94229 339.03402,355.42724 C 339.03402,354.92896 339.03945,354.91366 339.20015,354.95744 339.73637,355.10354 341.12595,355.17016 341.92372,355.08806 342.38501,355.04059 342.83228,354.98286 342.91763,354.95982 343.05838,354.9218 343.07674,354.95577 343.11477,355.32449 343.13783,355.5481 343.22225,355.8794 343.30241,356.0607 L 343.4481,356.39036 343.17911,356.43488 C 342.89599,356.48172 341.49028,356.48053 341.1751,356.43315 Z M 343.54949,356.01922 C 343.46753,355.84652 343.37821,355.51815 343.35095,355.28953 L 343.30144,354.87381 343.69642,354.78054 C 344.41937,354.60981 345.33677,354.25948 346.24913,353.80574 347.0269,353.41892 347.16832,353.37052 347.27128,353.45605 347.434,353.59119 347.81825,354.27196 347.8191,354.42662 347.82083,354.73949 345.8841,355.8043 344.69222,356.1458 343.78877,356.40464 343.72924,356.39804 343.54949,356.01922 Z M 338.11115,355.49686 C 337.14381,354.98857 336.60365,354.5829 335.78552,353.75026 334.92933,352.87893 334.39793,352.09516 333.93543,351.0216 333.08789,349.05428 332.98102,346.69136 333.64877,344.68332 L 333.80112,344.22513 334.18421,344.51581 C 334.39492,344.67566 334.6999,344.85082 334.86197,344.90507 L 335.1566,345.00369 335.165,346.62325 C 335.17701,348.9392 335.44859,350.36956 336.12485,351.67846 336.57532,352.55033 337.05248,353.15756 338.00452,354.07053 L 338.82191,354.85437 338.76185,355.3308 338.70181,355.80722 338.11115,355.49686 Z M 339.55511,354.7737 C 339.13811,354.71024 339.01983,354.65227 338.59533,354.30328 338.32904,354.08438 337.97003,353.76047 337.79753,353.5835 L 337.48394,353.26177 338.18633,353.16741 C 338.88275,353.07388 338.89293,353.07478 339.3859,353.27434 340.13158,353.5762 340.63717,353.55766 341.35606,353.20211 342.65682,352.55875 343.37862,351.38142 343.30221,350.0278 L 343.27306,349.51143 342.8701,349.15012 C 342.29447,348.63403 341.55603,348.27974 341.05594,348.27974 340.33534,348.27974 339.71243,348.63939 339.54296,349.1533 339.3504,349.7372 339.64559,350.93878 340.08593,351.36358 340.36258,351.63046 341.4159,352.34872 341.46243,352.30219 341.47958,352.285 341.51728,352.11494 341.5462,351.92426 341.61817,351.44966 341.46779,351.14236 340.80689,350.41343 340.08656,349.61894 339.97149,349.14857 340.43837,348.90694 340.72277,348.75977 340.7566,348.76492 341.03285,348.99755 341.80196,349.64519 342.24638,351.30404 341.8504,352.04904 341.65021,352.42569 341.187,352.7263 340.74078,352.76922 339.89327,352.85072 339.14901,352.04811 338.33868,350.17887 337.70849,348.72512 337.58258,347.15713 338.05417,346.63563 338.16488,346.51322 338.17907,346.51841 338.30635,346.72786 338.38052,346.84993 338.49154,346.9498 338.55305,346.9498 338.739,346.9498 338.9602,346.66885 338.9602,346.4326 338.9602,346.24004 338.98685,346.21095 339.16324,346.21101 339.62946,346.21113 340.60979,346.82891 341.48717,347.67549 341.67911,347.8607 341.84808,347.99762 341.86269,347.97974 341.87727,347.96187 341.98151,347.61661 342.09436,347.21246 342.24779,346.66292 342.37404,346.37888 342.59522,346.08572 342.75785,345.87014 342.90324,345.69374 342.91831,345.69374 342.97416,345.69374 343.68669,347.17658 344.0797,348.11074 344.59636,349.33883 344.8666,350.19506 344.8666,350.60392 344.8666,350.90518 344.84632,350.93746 344.54664,351.11322 343.99115,351.43899 343.55029,352.02004 343.32162,352.72772 343.18233,353.15887 343.46074,353.51095 343.86141,353.4103 344.09196,353.35239 344.14826,353.12906 343.99823,352.86746 343.89856,352.69365 343.89448,352.62549 343.97249,352.43698 344.14249,352.02631 344.4349,351.85024 345.97404,351.23191 348.021,350.40956 348.20322,350.31674 348.59644,349.89604 348.91416,349.55612 349.2964,348.85532 349.2964,348.61273 349.2964,348.55436 349.36578,348.46943 349.4506,348.424 349.53539,348.37858 349.73074,348.22755 349.88467,348.08837 L 350.16457,347.83531 350.21716,348.67724 C 350.24605,349.14032 350.24619,349.739 350.21746,350.00767 L 350.16518,350.49614 349.33826,351.29048 C 347.60338,352.95705 345.56154,354.09735 343.39103,354.61184 342.75503,354.76261 342.38137,354.80037 341.32276,354.82096 340.61215,354.83479 339.81671,354.81351 339.55511,354.7737 Z M 347.94394,354.05478 C 347.87896,353.89221 347.72035,353.63902 347.59148,353.49214 347.4626,353.34526 347.3699,353.21372 347.38546,353.1998 347.40101,353.18589 347.76257,352.91278 348.18894,352.5929 348.61531,352.273 349.25899,351.71956 349.61932,351.36301 350.21954,350.76908 350.2828,350.7257 350.37373,350.84563 350.51351,351.03001 350.51223,351.03531 350.16593,351.70143 349.77664,352.45028 349.16285,353.27389 348.54046,353.88255 L 348.06211,354.35034 347.94394,354.05478 Z M 336.91931,352.54723 C 336.45866,351.92692 335.98264,350.89945 335.78559,350.10016 L 335.62418,349.44544 335.9012,349.21355 C 336.05355,349.08601 336.26428,348.92535 336.36947,348.85654 L 336.56072,348.73144 336.53757,349.22597 C 336.52483,349.49798 336.54585,350.03133 336.5843,350.41123 L 336.65414,351.10197 337.41323,351.81504 C 337.83075,352.20726 338.27007,352.60078 338.38952,352.68957 L 338.60669,352.85101 338.35892,352.88888 C 338.22266,352.90971 337.92026,352.9454 337.68693,352.9682 L 337.26272,353.00962 336.91931,352.54723 Z M 350.51965,350.65227 C 350.49299,350.60907 350.46121,349.94953 350.44905,349.1866 350.39306,345.67156 349.54051,343.32338 347.71233,341.64885 347.00529,341.00124 345.85684,340.27221 345.32802,340.1353 345.17896,340.0967 345.16192,340.04674 345.16192,339.6481 345.16192,339.40381 345.13985,339.14635 345.11287,339.07599 345.0708,338.96632 345.09434,338.95573 345.27778,339.00181 345.39548,339.03137 345.7328,339.16702 346.02743,339.30322 347.77121,340.10951 349.38355,341.67255 350.25577,343.40234 351.26368,345.40112 351.49044,347.82597 350.87079,349.97911 350.68327,350.63067 350.60225,350.78601 350.51965,350.65227 Z M 346.39462,349.55426 C 346.02736,348.8326 345.23574,347.07331 345.23574,346.97878 345.23574,346.95736 345.30025,346.96033 345.37906,346.98536 345.45786,347.01039 345.76769,346.94614 346.06752,346.84257 346.77589,346.5979 347.02047,346.60085 347.30247,346.85744 347.64304,347.16735 348.03823,348.19879 348.03994,348.78213 348.04141,349.29344 347.94299,349.54394 347.62336,349.84227 347.41269,350.0389 346.93934,350.34775 346.84787,350.34825 346.8209,350.34841 346.61693,349.99111 346.39462,349.55426 Z M 335.51315,348.73514 C 335.48021,348.50498 335.45327,347.55625 335.45327,346.62682 L 335.45327,344.93697 335.99774,344.42661 C 337.47011,343.04647 340.50735,341.55484 343.73014,340.62917 344.36022,340.44819 344.93278,340.30011 345.00246,340.30011 345.16806,340.30011 346.08209,340.74001 346.57933,341.05899 347.4817,341.63792 348.7624,342.97948 348.54457,343.11767 348.49111,343.15159 348.18767,343.26644 347.87029,343.37289 L 347.29324,343.56646 346.8736,343.34366 C 346.32266,343.05116 345.64649,342.86001 345.33923,342.90992 345.20387,342.93189 344.79292,343.08517 344.42602,343.25048 344.05915,343.4158 343.74614,343.55108 343.7305,343.55108 343.71484,343.55108 343.66241,343.34329 343.61398,343.08931 343.49306,342.45528 343.18098,341.85192 342.8843,341.6785 342.65547,341.54475 342.63063,341.54415 342.31612,341.66435 342.01247,341.78038 341.8755,341.92561 342.06966,341.92561 342.11771,341.92561 342.13478,341.99196 342.11052,342.08469 342.08766,342.17218 342.11736,342.33745 342.17653,342.45193 342.37407,342.83421 342.73309,342.89703 342.83416,342.56697 342.87969,342.41828 342.89258,342.4258 343.00133,342.66444 343.06614,342.80668 343.13374,343.1243 343.15151,343.37026 L 343.18385,343.81748 342.37166,344.19579 C 341.15985,344.76027 340.44987,344.81414 340.31732,344.35162 340.28091,344.22458 340.19836,344.08731 340.1339,344.04662 339.94882,343.92979 339.64708,344.04272 339.59556,344.24811 339.51816,344.55675 339.68349,344.7802 340.14137,344.98585 340.64838,345.21356 341.21181,345.23609 341.85839,345.05452 342.27545,344.9374 342.29865,344.93816 342.4335,345.07312 342.57166,345.21139 342.56777,345.22213 342.20422,345.70796 L 341.83439,346.20217 341.32356,345.98462 C 340.13422,345.47811 339.37654,345.44355 338.40545,345.85148 337.43354,346.25977 336.99683,346.78702 336.69236,347.91979 336.56684,348.38683 336.53786,348.42674 336.06689,348.78155 L 335.57306,349.15359 335.51315,348.73514 Z M 349.4882,347.75047 C 349.57962,346.96198 349.52212,346.8506 348.76741,346.35466 348.12827,345.93467 348.07841,345.91541 347.63045,345.91541 L 347.16195,345.91541 347.356,345.41668 C 347.50559,345.03223 347.55136,344.78041 347.55573,344.3176 L 347.56141,343.71728 348.17989,343.5157 C 348.89284,343.28335 348.78757,343.21861 349.25845,344.1791 349.63643,344.95012 349.82939,345.60554 350.00122,346.70216 L 350.1241,347.48642 349.78189,347.82766 349.43968,348.16892 349.4882,347.75047 Z M 345.53106,346.36142 C 345.53106,346.32117 345.44399,346.23115 345.33754,346.16134 345.1532,346.04047 345.13924,346.04101 345.04299,346.17272 344.98742,346.24877 344.93021,346.2968 344.91587,346.27945 344.86096,346.21298 344.35767,344.89841 344.23504,344.50111 344.16428,344.27184 344.12633,344.03217 344.15077,343.96851 344.17516,343.90486 344.37672,343.79995 344.5987,343.73536 344.95708,343.63111 345.03136,343.63013 345.2621,343.72661 345.57534,343.85758 345.91414,344.30581 346.12384,344.86671 346.30826,345.36001 346.33984,345.95078 346.18974,346.09982 346.04146,346.24706 345.53106,346.44976 345.53106,346.36142 Z M 334.84299,344.62454 C 334.34852,344.39415 333.93976,344.08334 333.93976,343.93771 333.93976,343.56026 335.13477,341.78225 335.87819,341.05357 L 336.27789,340.66179 336.62194,341.25435 C 336.81116,341.58026 337.16057,342.05413 337.39844,342.30736 L 337.8309,342.76783 337.08508,343.2608 C 336.67486,343.53194 336.09671,343.99077 335.80031,344.28045 335.50394,344.57012 335.25473,344.8068 335.2466,344.8064 335.23844,344.80599 335.05683,344.72417 334.84299,344.62454 Z M 337.8379,342.43692 C 337.41014,342.11741 336.45155,340.62467 336.56067,340.448 336.64815,340.30634 337.85574,339.55033 338.37817,339.31015 339.04292,339.00455 339.99874,338.69869 340.49472,338.63283 L 340.86258,338.584 341.09329,339.18265 C 341.37724,339.91953 341.48669,340.41217 341.45656,340.81768 L 341.4335,341.12785 340.65828,341.44033 C 340.23191,341.61218 339.48784,341.94129 339.00478,342.17168 338.52172,342.40207 338.10641,342.58952 338.0819,342.58821 338.05738,342.58694 337.94758,342.51885 337.8379,342.43692 Z M 341.6919,340.6541 C 341.6919,340.21004 341.5293,339.55098 341.28131,338.98981 341.18123,338.76333 341.11494,338.56243 341.13401,338.54336 341.21998,338.45733 342.54562,338.44223 343.21145,338.51967 343.99439,338.61079 344.69672,338.77059 344.80935,338.88334 344.88647,338.96053 344.92859,339.96699 344.85767,340.03806 344.83246,340.06334 344.50979,340.16491 344.14061,340.26378 343.77144,340.36264 343.06948,340.57407 342.58066,340.73361 L 341.6919,341.02369 341.6919,340.6541 Z"
         style="fill:#000000" />
    </g>
  </g>
</svg>
