<?xml version="1.0" encoding="UTF-8" standalone="no"?>
<!-- Created with Inkscape (http://www.inkscape.org/) -->

<svg
   xmlns:dc="http://purl.org/dc/elements/1.1/"
   xmlns:cc="http://creativecommons.org/ns#"
   xmlns:rdf="http://www.w3.org/1999/02/22-rdf-syntax-ns#"
   xmlns:svg="http://www.w3.org/2000/svg"
   xmlns="http://www.w3.org/2000/svg"
   xmlns:sodipodi="http://sodipodi.sourceforge.net/DTD/sodipodi-0.dtd"
   xmlns:inkscape="http://www.inkscape.org/namespaces/inkscape"
   width="46"
   height="20"
   viewBox="0 0 46.000001 20"
   id="svg6309"
   version="1.1"
   inkscape:version="0.91 r13725"
   sodipodi:docname="halfmomgbgb.svg">
  <defs
     id="defs6311" />
  <sodipodi:namedview
     id="base"
     pagecolor="#ffffff"
     bordercolor="#666666"
     borderopacity="1.0"
     inkscape:pageopacity="0.0"
     inkscape:pageshadow="2"
     inkscape:zoom="7.9195959"
     inkscape:cx="18.8194"
     inkscape:cy="25.179409"
     inkscape:document-units="px"
     inkscape:current-layer="layer1"
     showgrid="false"
     units="px"
     inkscape:window-width="913"
     inkscape:window-height="1042"
     inkscape:window-x="929"
     inkscape:window-y="0"
     inkscape:window-maximized="0" />
  <metadata
     id="metadata6314">
    <rdf:RDF>
      <cc:Work
         rdf:about="">
        <dc:format>image/svg+xml</dc:format>
        <dc:type
           rdf:resource="http://purl.org/dc/dcmitype/StillImage" />
        <dc:title></dc:title>
      </cc:Work>
    </rdf:RDF>
  </metadata>
  <g
     inkscape:label="Layer 1"
     inkscape:groupmode="layer"
     id="layer1"
     transform="translate(0,-1032.3622)">
    <g
       id="g5199"
       transform="translate(-59.569809,555.16515)">
      <path
         inkscape:connector-curvature="0"
         id="path4843-4-0-3"
         d="M 88.377012,493.17291 C 87.949844,493.1087 87.618932,493.03951 87.306476,492.94903 L 86.949628,492.84567 86.949628,492.5023 C 86.949628,492.17012 86.953244,492.15992 87.06038,492.1891 87.41786,492.28651 88.344244,492.33092 88.876092,492.27619 89.18362,492.24453 89.481804,492.20606 89.5387,492.1907 89.63254,492.16534 89.644771,492.18799 89.670124,492.4338 89.685499,492.58288 89.741788,492.80374 89.79522,492.92462 L 89.892348,493.14439 89.713027,493.17406 C 89.524276,493.2053 88.587132,493.2045 88.377012,493.17291 Z M 89.959939,492.89696 C 89.9053,492.78182 89.845747,492.56292 89.827579,492.41049 L 89.794572,492.13335 90.057892,492.07118 C 90.53986,491.95735 91.151467,491.7238 91.759708,491.42131 92.278211,491.16343 92.372491,491.13116 92.441131,491.18817 92.549611,491.27827 92.805787,491.73212 92.806355,491.83522 92.8075,492.0438 91.516355,492.75368 90.721764,492.98134 90.11946,493.1539 90.07978,493.1495 89.959939,492.89696 Z M 86.33438,492.54872 C 85.689485,492.20985 85.329389,491.93942 84.783946,491.38432 84.213162,490.80343 83.85889,490.28092 83.550562,489.56522 82.985538,488.25367 82.914298,486.67838 83.35945,485.3397 L 83.461026,485.03424 83.716426,485.22802 C 83.856889,485.33458 84.060217,485.45137 84.16825,485.48752 L 84.364674,485.55327 84.370282,486.63297 C 84.378282,488.17694 84.559345,489.13052 85.010189,490.00312 85.310492,490.58436 85.628588,490.98919 86.263292,491.59783 L 86.80822,492.12039 86.76818,492.43802 86.728148,492.75562 86.33438,492.54872 Z M 87.29702,492.06662 C 87.019028,492.02431 86.940164,491.98566 86.657164,491.753 86.479637,491.60707 86.2403,491.39112 86.125308,491.27314 L 85.916244,491.05866 86.384501,490.99575 C 86.848788,490.9334 86.855564,490.934 87.184212,491.06704 87.681332,491.26828 88.018396,491.25592 88.49766,491.01888 89.364835,490.58997 89.846035,489.8051 89.795083,488.90268 L 89.775652,488.55843 89.507011,488.31756 C 89.12326,487.97349 88.630964,487.73731 88.297572,487.73731 87.81718,487.73731 87.401908,487.97707 87.288924,488.31968 87.160548,488.70895 87.35734,489.51 87.6509,489.7932 87.835332,489.97112 88.537556,490.44996 88.568564,490.41895 88.580004,490.40748 88.605132,490.2941 88.624412,490.16698 88.672388,489.85058 88.57214,489.64572 88.13154,489.15976 87.651316,488.63011 87.574604,488.31652 87.88586,488.15544 88.07546,488.05732 88.098012,488.06076 88.28218,488.21584 88.794916,488.6476 89.091204,489.7535 88.827211,490.25018 88.693748,490.50127 88.384948,490.70168 88.087476,490.7303 87.52246,490.78462 87.026284,490.24956 86.486076,489.00339 86.06594,488.03422 85.982004,486.98889 86.296397,486.64123 86.370204,486.55963 86.37966,486.56308 86.464517,486.70272 86.513964,486.7841 86.58798,486.85068 86.62898,486.85068 86.752956,486.85068 86.900412,486.66338 86.900412,486.50588 86.900412,486.3775 86.91818,486.35811 87.035772,486.35815 87.346588,486.35823 88.000148,486.77008 88.58506,487.33447 88.713028,487.45795 88.825675,487.54922 88.835404,487.5373 88.845124,487.52539 88.914619,487.29522 88.989852,487.02578 89.09214,486.65942 89.176308,486.47006 89.323756,486.27463 89.432179,486.1309 89.529108,486.0133 89.539147,486.0133 89.576395,486.0133 90.051403,487.00186 90.313411,487.62464 90.657852,488.44336 90.83802,489.01418 90.83802,489.28676 90.83802,489.4876 90.824491,489.50912 90.624708,489.6263 90.25438,489.84348 89.960467,490.23084 89.808028,490.70263 89.715163,490.99005 89.900772,491.22477 90.167884,491.15768 90.321588,491.11908 90.359124,490.97018 90.259099,490.79578 90.192652,490.67991 90.18994,490.63447 90.241939,490.5088 90.355276,490.23501 90.550212,490.11764 91.576315,489.70543 92.940955,489.15718 93.062435,489.0953 93.324578,488.81484 93.536395,488.58823 93.791219,488.12102 93.791219,487.9593 93.791219,487.92038 93.837467,487.86376 93.894011,487.83348 93.950546,487.8032 94.080779,487.70251 94.183403,487.60972 L 94.370003,487.44102 94.405051,488.0023 C 94.424323,488.31103 94.424411,488.71015 94.40525,488.88926 L 94.370402,489.2149 93.819122,489.74446 C 92.662531,490.85551 91.301315,491.61571 89.8543,491.9587 89.430307,492.05922 89.181187,492.08439 88.47546,492.09812 88.001716,492.10734 87.47142,492.09315 87.29702,492.06662 Z M 92.88958,491.58734 C 92.846251,491.47896 92.740507,491.31016 92.654596,491.21224 92.568683,491.11432 92.506883,491.02663 92.517251,491.01734 92.527627,491.00808 92.768668,490.826 93.052915,490.61275 93.337163,490.39948 93.766274,490.03052 94.006499,489.79281 94.406642,489.39686 94.44881,489.36794 94.509434,489.44791 94.602619,489.57081 94.601762,489.57435 94.370899,490.01844 94.11137,490.51766 93.702179,491.06673 93.287251,491.47251 L 92.968363,491.78438 92.88958,491.58734 Z M 85.539821,490.58229 C 85.232724,490.16876 84.91537,489.48379 84.784001,488.95092 L 84.676393,488.51444 84.861073,488.35984 C 84.962645,488.27481 85.103132,488.16771 85.17326,488.12184 L 85.300764,488.03844 85.285325,488.36812 C 85.276829,488.54947 85.290845,488.90503 85.316468,489.1583 L 85.363044,489.61879 85.869101,490.09418 C 86.147444,490.35566 86.440325,490.618 86.519964,490.67719 L 86.66474,490.78482 86.499564,490.81006 C 86.408717,490.82395 86.207117,490.84774 86.051564,490.86295 L 85.768748,490.89056 85.539821,490.58229 Z M 94.606723,489.31899 C 94.588939,489.29019 94.567754,488.8505 94.559651,488.34188 94.522322,485.99852 93.953954,484.43307 92.735164,483.31671 92.263804,482.88498 91.49818,482.39895 91.145635,482.30768 91.046251,482.28195 91.034891,482.24864 91.034891,481.98289 91.034891,481.82002 91.020179,481.64838 91.002196,481.60148 90.974155,481.52835 90.989843,481.5213 91.112131,481.55202 91.190596,481.57172 91.415483,481.66215 91.611899,481.75297 92.774419,482.29048 93.849314,483.33252 94.430803,484.4857 95.102731,485.81822 95.253906,487.43479 94.840811,488.87022 94.715803,489.30459 94.661786,489.40815 94.606723,489.31899 Z M 91.856692,488.58698 C 91.611851,488.10588 91.084115,486.93302 91.084115,486.87 91.084115,486.85572 91.127107,486.8577 91.179652,486.87439 91.232195,486.89107 91.438747,486.84824 91.638635,486.77919 92.110876,486.61608 92.273923,486.61804 92.461924,486.7891 92.688971,486.99571 92.952443,487.68333 92.953571,488.07223 92.954563,488.4131 92.888947,488.5801 92.675851,488.77899 92.535403,488.91008 92.219843,489.11598 92.158867,489.11631 92.140876,489.11642 92.004899,488.87822 91.856692,488.58698 Z M 84.602386,488.04091 C 84.580426,487.88746 84.562457,487.25498 84.562457,486.63536 L 84.562457,485.5088 84.925426,485.16855 C 85.907021,484.24846 87.931844,483.25405 90.080371,482.63692 90.500428,482.51628 90.882132,482.41755 90.928588,482.41755 91.038988,482.41755 91.648348,482.71082 91.979827,482.92347 92.58142,483.30943 93.435218,484.2038 93.290003,484.29592 93.254354,484.31854 93.05206,484.3951 92.840483,484.46607 L 92.455771,484.59512 92.176012,484.44658 C 91.808716,484.25158 91.357939,484.12416 91.153108,484.15743 91.062859,484.17207 90.788892,484.27426 90.5443,484.38447 90.299707,484.49468 90.091044,484.58487 90.080611,484.58487 90.07018,484.58487 90.035227,484.44634 90.002932,484.27702 89.922324,483.85434 89.714275,483.4521 89.516484,483.33649 89.363923,483.24732 89.347363,483.24692 89.137692,483.32704 88.935268,483.40441 88.843948,483.50122 88.973395,483.50122 89.00542,483.50122 89.016796,483.54546 89.000635,483.60728 88.985395,483.6656 89.005188,483.77578 89.044627,483.8521 89.176324,484.10696 89.415676,484.14884 89.483052,483.9288 89.513404,483.82966 89.522004,483.83468 89.5945,483.99378 89.637715,484.0886 89.682772,484.30035 89.694628,484.46432 L 89.71618,484.76247 89.174724,485.01468 C 88.366844,485.391 87.893524,485.42691 87.805156,485.11856 87.780884,485.03386 87.72586,484.94235 87.682876,484.91523 87.559492,484.83734 87.358332,484.91263 87.323996,485.04956 87.272388,485.25531 87.382604,485.40428 87.68786,485.54138 88.025868,485.69318 88.401484,485.7082 88.832539,485.58716 89.110579,485.50909 89.126044,485.50959 89.215948,485.59956 89.308051,485.69174 89.305459,485.69889 89.063092,486.02278 L 88.81654,486.35226 88.475996,486.20722 C 87.683092,485.86956 87.177972,485.84652 86.53058,486.11846 85.882644,486.39066 85.591508,486.74216 85.388516,487.49733 85.304828,487.8087 85.285517,487.8353 84.97154,488.07184 L 84.642313,488.31987 84.602386,488.04091 Z M 93.919082,487.38446 C 93.980035,486.8588 93.94169,486.78454 93.438554,486.45392 93.01246,486.17392 92.97922,486.16108 92.680579,486.16108 L 92.368243,486.16108 92.497619,485.8286 C 92.597347,485.5723 92.627851,485.40442 92.630764,485.09588 L 92.634547,484.69567 93.046867,484.56128 C 93.52217,484.40638 93.451994,484.36322 93.765907,485.00355 94.017907,485.51756 94.146539,485.9545 94.261091,486.68558 L 94.343011,487.20842 94.114874,487.43592 93.88673,487.66342 93.919082,487.38446 Z M 91.280995,486.45842 C 91.280995,486.43159 91.222939,486.37158 91.15198,486.32504 91.029076,486.24446 91.019771,486.24482 90.955603,486.33262 90.918563,486.38332 90.880428,486.41534 90.870868,486.40377 90.834252,486.35947 90.498724,485.48308 90.416971,485.21822 90.369796,485.06538 90.344508,484.9056 90.360787,484.86315 90.377052,484.82072 90.511435,484.75078 90.659412,484.70773 90.898332,484.63822 90.947851,484.63756 91.101676,484.70188 91.310515,484.78921 91.536371,485.08802 91.676171,485.46195 91.799123,485.79081 91.820171,486.18466 91.720115,486.28402 91.621252,486.38218 91.280995,486.51732 91.280995,486.45842 Z M 84.155593,485.3005 C 83.825953,485.14692 83.55345,484.93971 83.55345,484.84262 83.55345,484.59099 84.350122,483.40564 84.845737,482.91986 L 85.112204,482.65868 85.341572,483.05372 C 85.467716,483.27099 85.700669,483.5869 85.859244,483.75572 L 86.147556,484.0627 85.650332,484.39135 C 85.376861,484.5721 84.991428,484.878 84.793817,485.07111 84.596225,485.26423 84.430097,485.42202 84.424666,485.42175 84.419242,485.42148 84.298162,485.36692 84.155593,485.3005 Z M 86.152212,483.8421 C 85.867044,483.62908 85.22798,482.63392 85.300724,482.51614 85.359044,482.4217 86.164116,481.9177 86.512388,481.75758 86.955564,481.55384 87.592772,481.34994 87.923428,481.30604 L 88.168668,481.27347 88.322468,481.67258 C 88.511772,482.16384 88.58474,482.49226 88.564652,482.7626 L 88.549284,482.96938 88.032468,483.1777 C 87.74822,483.29227 87.25218,483.51168 86.930132,483.66526 86.608092,483.81886 86.331221,483.94383 86.314884,483.94296 86.29854,483.9421 86.22534,483.89672 86.152212,483.8421 Z M 88.721556,482.65354 C 88.721556,482.3575 88.613156,481.91814 88.447828,481.54402 88.381108,481.39304 88.336908,481.2591 88.34962,481.24639 88.406932,481.18904 89.290692,481.17896 89.734579,481.2306 90.25654,481.29134 90.724756,481.39788 90.799843,481.47303 90.85126,481.5245 90.87934,482.19548 90.83206,482.24286 90.815251,482.2597 90.600139,482.32742 90.354019,482.39334 90.107916,482.45924 89.639932,482.60019 89.314051,482.70656 L 88.721556,482.89994 88.721556,482.65354 Z"
         style="fill:#000000" />
      <path
         inkscape:connector-curvature="0"
         id="path4843-4-0-5"
         d="M 75.37701,493.17291 C 74.949843,493.1087 74.618931,493.03951 74.306475,492.94903 L 73.949627,492.84567 73.949627,492.5023 C 73.949627,492.17012 73.953243,492.15992 74.060379,492.1891 74.417859,492.28651 75.344243,492.33092 75.87609,492.27619 76.183619,492.24453 76.481802,492.20606 76.538699,492.1907 76.632539,492.16534 76.644771,492.18799 76.670123,492.4338 76.685499,492.58288 76.741787,492.80374 76.795218,492.92462 L 76.892348,493.14439 76.713027,493.17406 C 76.524275,493.2053 75.58713,493.2045 75.37701,493.17291 Z M 76.959939,492.89696 C 76.905299,492.78182 76.845747,492.56292 76.827579,492.41049 L 76.79457,492.13335 77.057891,492.07118 C 77.539859,491.95735 78.151467,491.7238 78.759707,491.42131 79.278212,491.16343 79.372491,491.13116 79.441131,491.18817 79.549611,491.27827 79.805787,491.73212 79.806355,491.83522 79.807499,492.0438 78.516356,492.75368 77.721764,492.98134 77.11946,493.1539 77.079779,493.1495 76.959939,492.89696 Z M 73.334379,492.54872 C 72.689483,492.20985 72.329387,491.93942 71.783947,491.38432 71.213163,490.80343 70.858891,490.28092 70.550563,489.56522 69.985539,488.25367 69.914299,486.67838 70.359451,485.3397 L 70.461027,485.03424 70.716427,485.22802 C 70.85689,485.33458 71.060218,485.45137 71.168251,485.48752 L 71.364675,485.55327 71.370283,486.63297 C 71.378283,488.17694 71.559346,489.13052 72.010187,490.00312 72.310491,490.58436 72.628587,490.98919 73.263291,491.59783 L 73.808219,492.12039 73.768179,492.43802 73.728147,492.75562 73.334379,492.54872 Z M 74.297019,492.06662 C 74.019027,492.02431 73.940163,491.98566 73.657163,491.753 73.479635,491.60707 73.240299,491.39112 73.125306,491.27314 L 72.916242,491.05866 73.384499,490.99575 C 73.848786,490.9334 73.855563,490.934 74.18421,491.06704 74.681331,491.26828 75.018395,491.25592 75.497658,491.01888 76.364835,490.58997 76.846035,489.8051 76.795083,488.90268 L 76.775651,488.55843 76.507011,488.31756 C 76.123259,487.97349 75.630963,487.73731 75.29757,487.73731 74.817179,487.73731 74.401907,487.97707 74.288922,488.31968 74.160546,488.70895 74.357339,489.51 74.650899,489.7932 74.83533,489.97112 75.537555,490.44996 75.568563,490.41895 75.580002,490.40748 75.60513,490.2941 75.624411,490.16698 75.672387,489.85058 75.572139,489.64572 75.131538,489.15976 74.651315,488.63011 74.574603,488.31652 74.885859,488.15544 75.075459,488.05732 75.09801,488.06076 75.282179,488.21584 75.794915,488.6476 76.091202,489.7535 75.827211,490.25018 75.693747,490.50127 75.384947,490.70168 75.087474,490.7303 74.522459,490.78462 74.026283,490.24956 73.486074,489.00339 73.065939,488.03422 72.982002,486.98889 73.296395,486.64123 73.370202,486.55963 73.379658,486.56308 73.464515,486.70272 73.513962,486.7841 73.587978,486.85068 73.628979,486.85068 73.752954,486.85068 73.90041,486.66338 73.90041,486.50588 73.90041,486.3775 73.918179,486.35811 74.03577,486.35815 74.346587,486.35823 75.000147,486.77008 75.585059,487.33447 75.713027,487.45795 75.825675,487.54922 75.835403,487.5373 75.845123,487.52539 75.914619,487.29522 75.98985,487.02578 76.092138,486.65942 76.176306,486.47006 76.323755,486.27463 76.432179,486.1309 76.529106,486.0133 76.539147,486.0133 76.576395,486.0133 77.051403,487.00186 77.313411,487.62464 77.657852,488.44336 77.83802,489.01418 77.83802,489.28676 77.83802,489.4876 77.824491,489.50912 77.624708,489.6263 77.254379,489.84348 76.960467,490.23084 76.808027,490.70263 76.715163,490.99005 76.900772,491.22477 77.167883,491.15768 77.321588,491.11908 77.359124,490.97018 77.259099,490.79578 77.192651,490.67991 77.189939,490.63447 77.241939,490.5088 77.355275,490.23501 77.550212,490.11764 78.576315,489.70543 79.940955,489.15718 80.062435,489.0953 80.324579,488.81484 80.536395,488.58823 80.791219,488.12102 80.791219,487.9593 80.791219,487.92038 80.837467,487.86376 80.894011,487.83348 80.950547,487.8032 81.080779,487.70251 81.183403,487.60972 L 81.370003,487.44102 81.405051,488.0023 C 81.424323,488.31103 81.424411,488.71015 81.405251,488.88926 L 81.370403,489.2149 80.819123,489.74446 C 79.662531,490.85551 78.301316,491.61571 76.854299,491.9587 76.430307,492.05922 76.181187,492.08439 75.475458,492.09812 75.001715,492.10734 74.471418,492.09315 74.297019,492.06662 Z M 79.889579,491.58734 C 79.846251,491.47896 79.740507,491.31016 79.654595,491.21224 79.568684,491.11432 79.506884,491.02663 79.517252,491.01734 79.527627,491.00808 79.768667,490.826 80.052915,490.61275 80.337163,490.39948 80.766275,490.03052 81.006499,489.79281 81.406643,489.39686 81.448811,489.36794 81.509435,489.44791 81.602619,489.57081 81.601763,489.57435 81.370899,490.01844 81.111371,490.51766 80.702179,491.06673 80.287251,491.47251 L 79.968363,491.78438 79.889579,491.58734 Z M 72.539819,490.58229 C 72.232723,490.16876 71.915371,489.48379 71.784003,488.95092 L 71.676394,488.51444 71.861074,488.35984 C 71.962643,488.27481 72.103131,488.16771 72.173259,488.12184 L 72.300763,488.03844 72.285323,488.36812 C 72.276827,488.54947 72.290843,488.90503 72.316467,489.1583 L 72.363042,489.61879 72.869099,490.09418 C 73.147443,490.35566 73.440323,490.618 73.519962,490.67719 L 73.664739,490.78482 73.499562,490.81006 C 73.408715,490.82395 73.207115,490.84774 73.051563,490.86295 L 72.768747,490.89056 72.539819,490.58229 Z M 81.606723,489.31899 C 81.588939,489.29019 81.567755,488.8505 81.559651,488.34188 81.522323,485.99852 80.953955,484.43307 79.735163,483.31671 79.263803,482.88498 78.498179,482.39895 78.145635,482.30768 78.046251,482.28195 78.034892,482.24864 78.034892,481.98289 78.034892,481.82002 78.02018,481.64838 78.002195,481.60148 77.974155,481.52835 77.989844,481.5213 78.112131,481.55202 78.190595,481.57172 78.415484,481.66215 78.6119,481.75297 79.774419,482.29048 80.849315,483.33252 81.430803,484.4857 82.102732,485.81822 82.253908,487.43479 81.840811,488.87022 81.715803,489.30459 81.661787,489.40815 81.606723,489.31899 Z M 78.856691,488.58698 C 78.611852,488.10588 78.084116,486.93302 78.084116,486.87 78.084116,486.85572 78.127107,486.8577 78.179651,486.87439 78.232196,486.89107 78.438747,486.84824 78.638636,486.77919 79.110875,486.61608 79.273923,486.61804 79.461923,486.7891 79.688971,486.99571 79.952443,487.68333 79.953571,488.07223 79.954563,488.4131 79.888947,488.5801 79.675851,488.77899 79.535403,488.91008 79.219844,489.11598 79.158867,489.11631 79.140875,489.11642 79.0049,488.87822 78.856691,488.58698 Z M 71.602387,488.04091 C 71.580427,487.88746 71.562459,487.25498 71.562459,486.63536 L 71.562459,485.5088 71.925427,485.16855 C 72.907019,484.24846 74.931843,483.25405 77.080371,482.63692 77.500427,482.51628 77.882132,482.41755 77.928587,482.41755 78.038987,482.41755 78.648347,482.71082 78.979827,482.92347 79.581419,483.30943 80.435219,484.2038 80.290003,484.29592 80.254355,484.31854 80.052059,484.3951 79.840483,484.46607 L 79.455771,484.59512 79.176011,484.44658 C 78.808715,484.25158 78.357939,484.12416 78.153107,484.15743 78.062859,484.17207 77.788892,484.27426 77.544299,484.38447 77.299707,484.49468 77.091044,484.58487 77.080611,484.58487 77.070179,484.58487 77.035227,484.44634 77.002931,484.27702 76.922324,483.85434 76.714275,483.4521 76.516482,483.33649 76.363923,483.24732 76.347363,483.24692 76.13769,483.32704 75.935267,483.40441 75.843947,483.50122 75.973395,483.50122 76.005419,483.50122 76.016795,483.54546 76.000635,483.60728 75.985395,483.6656 76.005186,483.77578 76.044627,483.8521 76.176323,484.10696 76.415675,484.14884 76.48305,483.9288 76.513403,483.82966 76.522002,483.83468 76.594499,483.99378 76.637715,484.0886 76.682771,484.30035 76.694627,484.46432 L 76.716179,484.76247 76.174722,485.01468 C 75.366843,485.391 74.893523,485.42691 74.805155,485.11856 74.780883,485.03386 74.725859,484.94235 74.682875,484.91523 74.559491,484.83734 74.35833,484.91263 74.323995,485.04956 74.272386,485.25531 74.382603,485.40428 74.687859,485.54138 75.025866,485.69318 75.401483,485.7082 75.832539,485.58716 76.110579,485.50909 76.126043,485.50959 76.215947,485.59956 76.308051,485.69174 76.305459,485.69889 76.063091,486.02278 L 75.816539,486.35226 75.475995,486.20722 C 74.683091,485.86956 74.17797,485.84652 73.530579,486.11846 72.882642,486.39066 72.591507,486.74216 72.388515,487.49733 72.304827,487.8087 72.285515,487.8353 71.971539,488.07184 L 71.642314,488.31987 71.602387,488.04091 Z M 80.919083,487.38446 C 80.980035,486.8588 80.941691,486.78454 80.438555,486.45392 80.012459,486.17392 79.979219,486.16108 79.680579,486.16108 L 79.368243,486.16108 79.49762,485.8286 C 79.597347,485.5723 79.627851,485.40442 79.630763,485.09588 L 79.634547,484.69567 80.046867,484.56128 C 80.522171,484.40638 80.451995,484.36322 80.765907,485.00355 81.017907,485.51756 81.146539,485.9545 81.261091,486.68558 L 81.343011,487.20842 81.114875,487.43592 80.886731,487.66342 80.919083,487.38446 Z M 78.280995,486.45842 C 78.280995,486.43159 78.222939,486.37158 78.151979,486.32504 78.029075,486.24446 78.019772,486.24482 77.955603,486.33262 77.918564,486.38332 77.880428,486.41534 77.870867,486.40377 77.834252,486.35947 77.498723,485.48308 77.416971,485.21822 77.369795,485.06538 77.344508,484.9056 77.360787,484.86315 77.377052,484.82072 77.511435,484.75078 77.659412,484.70773 77.898332,484.63822 77.947851,484.63756 78.101675,484.70188 78.310515,484.78921 78.536372,485.08802 78.676172,485.46195 78.799124,485.79081 78.820172,486.18466 78.720116,486.28402 78.621251,486.38218 78.280995,486.51732 78.280995,486.45842 Z M 71.155594,485.3005 C 70.825954,485.14692 70.553451,484.93971 70.553451,484.84262 70.553451,484.59099 71.350123,483.40564 71.845738,482.91986 L 72.112203,482.65868 72.341571,483.05372 C 72.467715,483.27099 72.700667,483.5869 72.859242,483.75572 L 73.147554,484.0627 72.650331,484.39135 C 72.376859,484.5721 71.991427,484.878 71.793819,485.07111 71.596227,485.26423 71.430099,485.42202 71.424667,485.42175 71.419243,485.42148 71.298163,485.36692 71.155594,485.3005 Z M 73.15221,483.8421 C 72.867042,483.62908 72.227979,482.63392 72.300723,482.51614 72.359043,482.4217 73.164114,481.9177 73.512387,481.75758 73.955562,481.55384 74.592771,481.34994 74.923427,481.30604 L 75.168666,481.27347 75.322467,481.67258 C 75.51177,482.16384 75.584739,482.49226 75.564651,482.7626 L 75.549282,482.96938 75.032466,483.1777 C 74.748219,483.29227 74.252178,483.51168 73.930131,483.66526 73.60809,483.81886 73.331219,483.94383 73.314882,483.94296 73.298538,483.9421 73.225338,483.89672 73.15221,483.8421 Z M 75.721554,482.65354 C 75.721554,482.3575 75.613155,481.91814 75.447827,481.54402 75.381107,481.39304 75.336906,481.2591 75.349619,481.24639 75.406931,481.18904 76.29069,481.17896 76.734579,481.2306 77.256539,481.29134 77.724755,481.39788 77.799843,481.47303 77.851259,481.5245 77.879339,482.19548 77.832059,482.24286 77.815251,482.2597 77.600139,482.32742 77.354019,482.39334 77.107916,482.45924 76.639931,482.60019 76.314051,482.70656 L 75.721554,482.89994 75.721554,482.65354 Z"
         style="fill:#000000" />
    </g>
  </g>
</svg>
