<?xml version="1.0" encoding="UTF-8" standalone="no"?>
<!-- Created with Inkscape (http://www.inkscape.org/) -->

<svg
   xmlns:dc="http://purl.org/dc/elements/1.1/"
   xmlns:cc="http://creativecommons.org/ns#"
   xmlns:rdf="http://www.w3.org/1999/02/22-rdf-syntax-ns#"
   xmlns:svg="http://www.w3.org/2000/svg"
   xmlns="http://www.w3.org/2000/svg"
   xmlns:sodipodi="http://sodipodi.sourceforge.net/DTD/sodipodi-0.dtd"
   xmlns:inkscape="http://www.inkscape.org/namespaces/inkscape"
   width="46"
   height="20"
   viewBox="0 0 46.000001 20"
   id="svg6309"
   version="1.1"
   inkscape:version="0.91 r13725"
   sodipodi:docname="halfgb.svg">
  <defs
     id="defs6311" />
  <sodipodi:namedview
     id="base"
     pagecolor="#ffffff"
     bordercolor="#666666"
     borderopacity="1.0"
     inkscape:pageopacity="0.0"
     inkscape:pageshadow="2"
     inkscape:zoom="7.9195959"
     inkscape:cx="18.8194"
     inkscape:cy="25.179409"
     inkscape:document-units="px"
     inkscape:current-layer="layer1"
     showgrid="false"
     units="px"
     inkscape:window-width="913"
     inkscape:window-height="1042"
     inkscape:window-x="929"
     inkscape:window-y="0"
     inkscape:window-maximized="0" />
  <metadata
     id="metadata6314">
    <rdf:RDF>
      <cc:Work
         rdf:about="">
        <dc:format>image/svg+xml</dc:format>
        <dc:type
           rdf:resource="http://purl.org/dc/dcmitype/StillImage" />
        <dc:title></dc:title>
      </cc:Work>
    </rdf:RDF>
  </metadata>
  <g
     inkscape:label="Layer 1"
     inkscape:groupmode="layer"
     id="layer1"
     transform="translate(0,-1032.3622)">
    <path
       style="fill:#000000"
       d="M 22.134002,1049.832 C 21.600042,1049.7518 21.186402,1049.6653 20.795832,1049.5522 L 20.349772,1049.423 20.349772,1048.9938 C 20.349772,1048.5785 20.354292,1048.5658 20.488212,1048.6023 20.935062,1048.724 22.093042,1048.7795 22.757852,1048.7111 23.142262,1048.6716 23.514992,1048.6235 23.586112,1048.6043 23.703412,1048.5726 23.718702,1048.6009 23.750392,1048.9081 23.769612,1049.0945 23.839972,1049.3706 23.906762,1049.5217 L 24.028172,1049.7964 23.804022,1049.8335 C 23.568082,1049.8725 22.396652,1049.8715 22.134002,1049.832 Z M 24.112662,1049.4871 C 24.044362,1049.3432 23.969922,1049.0695 23.947212,1048.879 L 23.905952,1048.5326 24.235102,1048.4549 C 24.837562,1048.3126 25.602072,1048.0206 26.362372,1047.6425 27.010502,1047.3202 27.128352,1047.2798 27.214152,1047.3511 27.349752,1047.4637 27.669972,1048.031 27.670682,1048.1599 27.672112,1048.4206 26.058182,1049.308 25.064942,1049.5926 24.312062,1049.8083 24.262462,1049.8028 24.112662,1049.4871 Z M 19.580712,1049.0518 C 18.774592,1048.6282 18.324472,1048.2902 17.642672,1047.5963 16.929192,1046.8702 16.486352,1046.217 16.100942,1045.3224 15.394662,1043.683 15.305612,1041.7139 15.862052,1040.0405 L 15.989022,1039.6587 16.308272,1039.9009 C 16.483852,1040.0341 16.738012,1040.1801 16.873052,1040.2253 L 17.118582,1040.3075 17.125592,1041.6571 C 17.135592,1043.5871 17.361922,1044.779 17.925472,1045.8698 18.300852,1046.5963 18.698472,1047.1024 19.491852,1047.8632 L 20.173012,1048.5164 20.122962,1048.9134 20.072922,1049.3104 19.580712,1049.0518 Z M 20.784012,1048.4492 C 20.436522,1048.3963 20.337942,1048.348 19.984192,1048.0571 19.762282,1047.8747 19.463112,1047.6048 19.319372,1047.4573 L 19.058042,1047.1892 19.643362,1047.1106 C 20.223722,1047.0326 20.232192,1047.0334 20.643002,1047.1997 21.264402,1047.4512 21.685732,1047.4358 22.284812,1047.1395 23.368782,1046.6034 23.970282,1045.6223 23.906592,1044.4942 L 23.882302,1044.0639 23.546502,1043.7628 C 23.066812,1043.3328 22.451442,1043.0375 22.034702,1043.0375 21.434212,1043.0375 20.915122,1043.3372 20.773892,1043.7655 20.613422,1044.2521 20.859412,1045.2534 21.226362,1045.6074 21.456902,1045.8298 22.334682,1046.4283 22.373442,1046.3896 22.387742,1046.3752 22.419152,1046.2335 22.443252,1046.0746 22.503222,1045.6791 22.377912,1045.423 21.827162,1044.8156 21.226882,1044.1535 21.130992,1043.7615 21.520062,1043.5602 21.757062,1043.4375 21.785252,1043.4418 22.015462,1043.6357 22.656382,1044.1754 23.026742,1045.5578 22.696752,1046.1786 22.529922,1046.4925 22.143922,1046.743 21.772082,1046.7788 21.065812,1046.8467 20.445592,1046.1778 19.770332,1044.6201 19.245162,1043.4087 19.140242,1042.102 19.533232,1041.6674 19.625492,1041.5654 19.637312,1041.5697 19.743382,1041.7443 19.805192,1041.846 19.897712,1041.9292 19.948962,1041.9292 20.103932,1041.9292 20.288252,1041.6951 20.288252,1041.4982 20.288252,1041.3378 20.310462,1041.3135 20.457452,1041.3136 20.845972,1041.3137 21.662922,1041.8285 22.394062,1042.534 22.554022,1042.6883 22.694832,1042.8024 22.706992,1042.7875 22.719142,1042.7726 22.806012,1042.4849 22.900052,1042.1481 23.027912,1041.6902 23.133122,1041.4535 23.317432,1041.2092 23.452962,1041.0295 23.574122,1040.8825 23.586672,1040.8825 23.633232,1040.8825 24.226992,1042.1182 24.554502,1042.8967 24.985052,1043.9201 25.210262,1044.6336 25.210262,1044.9743 25.210262,1045.2254 25.193352,1045.2523 24.943622,1045.3988 24.480712,1045.6702 24.113322,1046.1544 23.922772,1046.7442 23.806692,1047.1035 24.038702,1047.3969 24.372592,1047.313 24.564722,1047.2647 24.611642,1047.0786 24.486612,1046.8606 24.403552,1046.7158 24.400162,1046.659 24.465162,1046.5019 24.606832,1046.1597 24.850502,1046.0129 26.133132,1045.4977 27.838932,1044.8124 27.990782,1044.735 28.318462,1044.3844 28.583232,1044.1012 28.901762,1043.5172 28.901762,1043.315 28.901762,1043.2664 28.959572,1043.1956 29.030252,1043.1577 29.100922,1043.1199 29.263712,1042.994 29.391992,1042.878 L 29.625242,1042.6672 29.669052,1043.3688 C 29.693142,1043.7547 29.693252,1044.2536 29.669302,1044.4775 L 29.625742,1044.8845 28.936642,1045.5465 C 27.490902,1046.9353 25.789382,1047.8855 23.980612,1048.3143 23.450622,1048.4399 23.139222,1048.4714 22.257062,1048.4885 21.664882,1048.5001 21.002012,1048.4823 20.784012,1048.4492 Z M 27.774712,1047.8501 C 27.720552,1047.7146 27.588372,1047.5036 27.480982,1047.3812 27.373592,1047.2588 27.296342,1047.1492 27.309302,1047.1376 27.322272,1047.126 27.623572,1046.8984 27.978882,1046.6318 28.334192,1046.3652 28.870582,1045.904 29.170862,1045.6069 29.671042,1045.112 29.723752,1045.0758 29.799532,1045.1758 29.916012,1045.3294 29.914942,1045.3338 29.626362,1045.8889 29.301952,1046.513 28.790462,1047.1993 28.271802,1047.7065 L 27.873192,1048.0964 27.774712,1047.8501 Z M 18.587512,1046.5938 C 18.203642,1046.0768 17.806952,1045.2206 17.642742,1044.5545 L 17.508232,1044.0089 17.739082,1043.8157 C 17.866042,1043.7094 18.041652,1043.5755 18.129312,1043.5182 L 18.288692,1043.4139 18.269392,1043.826 C 18.258772,1044.0527 18.276292,1044.4972 18.308322,1044.8138 L 18.366542,1045.3894 18.999112,1045.9836 C 19.347042,1046.3105 19.713142,1046.6384 19.812692,1046.7124 L 19.993662,1046.8469 19.787192,1046.8785 C 19.673632,1046.8958 19.421632,1046.9256 19.227192,1046.9446 L 18.873672,1046.9791 18.587512,1046.5938 Z M 29.921142,1045.0146 C 29.898912,1044.9786 29.872432,1044.429 29.862302,1043.7932 29.815642,1040.864 29.105182,1038.9072 27.581692,1037.5118 26.992492,1036.9721 26.035462,1036.3646 25.594782,1036.2505 25.470552,1036.2183 25.456352,1036.1767 25.456352,1035.8445 25.456352,1035.6409 25.437962,1035.4264 25.415482,1035.3677 25.380432,1035.2763 25.400042,1035.2675 25.552902,1035.3059 25.650982,1035.3305 25.932092,1035.4436 26.177612,1035.5571 27.630762,1036.229 28.974382,1037.5315 29.701242,1038.973 30.541152,1040.6387 30.730122,1042.6594 30.213752,1044.4537 30.057492,1044.9966 29.989972,1045.1261 29.921142,1045.0146 Z M 26.483602,1044.0996 C 26.177552,1043.4982 25.517882,1042.0322 25.517882,1041.9534 25.517882,1041.9355 25.571622,1041.938 25.637302,1041.9589 25.702982,1041.9797 25.961172,1041.9262 26.211032,1041.8399 26.801332,1041.636 27.005142,1041.6384 27.240142,1041.8523 27.523952,1042.1105 27.853292,1042.9701 27.854702,1043.4562 27.855942,1043.8823 27.773922,1044.091 27.507552,1044.3396 27.331992,1044.5035 26.937542,1044.7609 26.861322,1044.7613 26.838832,1044.7614 26.668862,1044.4637 26.483602,1044.0996 Z M 17.415722,1043.417 C 17.388272,1043.2252 17.365812,1042.4346 17.365812,1041.6601 L 17.365812,1040.2519 17.819522,1039.8266 C 19.046512,1038.6765 21.577542,1037.4334 24.263202,1036.662 24.788272,1036.5112 25.265402,1036.3878 25.323472,1036.3878 25.461472,1036.3878 26.223172,1036.7544 26.637522,1037.0202 27.389512,1037.5027 28.456762,1038.6206 28.275242,1038.7358 28.230682,1038.7641 27.977812,1038.8598 27.713342,1038.9485 L 27.232452,1039.1098 26.882752,1038.9241 C 26.423632,1038.6804 25.860162,1038.5211 25.604122,1038.5627 25.491312,1038.581 25.148852,1038.7087 24.843112,1038.8465 24.537372,1038.9842 24.276542,1039.097 24.263502,1039.097 24.250462,1039.097 24.206772,1038.9238 24.166402,1038.7122 24.065642,1038.1838 23.805582,1037.681 23.558342,1037.5365 23.367642,1037.425 23.346942,1037.4245 23.084852,1037.5247 22.831822,1037.6214 22.717672,1037.7424 22.879482,1037.7424 22.919512,1037.7424 22.933732,1037.7977 22.913532,1037.875 22.894482,1037.9479 22.919222,1038.0856 22.968522,1038.181 23.133142,1038.4996 23.432332,1038.5519 23.516552,1038.2769 23.554492,1038.153 23.565242,1038.1592 23.655862,1038.3581 23.709882,1038.4766 23.766202,1038.7413 23.781022,1038.9463 L 23.807962,1039.319 23.131142,1039.6342 C 22.121292,1040.1046 21.529642,1040.1495 21.419182,1039.7641 21.388842,1039.6582 21.320062,1039.5438 21.266332,1039.5099 21.112102,1039.4126 20.860652,1039.5067 20.817732,1039.6778 20.753222,1039.935 20.890992,1040.1212 21.272562,1040.2926 21.695072,1040.4824 22.164592,1040.5011 22.703412,1040.3498 23.050962,1040.2522 23.070292,1040.2529 23.182672,1040.3653 23.297802,1040.4806 23.294562,1040.4895 22.991602,1040.8944 L 22.683412,1041.3062 22.257732,1041.1249 C 21.266602,1040.7028 20.635202,1040.674 19.825962,1041.014 19.016042,1041.3542 18.652122,1041.7936 18.398382,1042.7376 18.293772,1043.1268 18.269632,1043.16 17.877162,1043.4557 L 17.465632,1043.7657 17.415722,1043.417 Z M 29.061592,1042.5965 C 29.137782,1041.9394 29.089852,1041.8466 28.460932,1041.4333 27.928312,1041.0833 27.886762,1041.0672 27.513462,1041.0672 L 27.123042,1041.0672 27.284762,1040.6516 C 27.409422,1040.3313 27.447552,1040.1214 27.451192,1039.7357 L 27.455922,1039.2355 27.971322,1039.0675 C 28.565452,1038.8739 28.477732,1038.8199 28.870122,1039.6203 29.185122,1040.2628 29.345912,1040.809 29.489102,1041.7229 L 29.591502,1042.3764 29.306332,1042.6608 29.021152,1042.9452 29.061592,1042.5965 Z M 25.763982,1041.4389 C 25.763982,1041.4054 25.691412,1041.3304 25.602712,1041.2722 25.449082,1041.1715 25.437452,1041.1719 25.357242,1041.2817 25.310942,1041.345 25.263272,1041.3851 25.251322,1041.3706 25.205552,1041.3152 24.786142,1040.2197 24.683952,1039.8887 24.624982,1039.6976 24.593372,1039.4979 24.613722,1039.4448 24.634052,1039.3918 24.802032,1039.3044 24.987002,1039.2505 25.285652,1039.1637 25.347552,1039.1628 25.539832,1039.2432 25.800882,1039.3524 26.083202,1039.7259 26.257952,1040.1933 26.411642,1040.6044 26.437952,1041.0967 26.312882,1041.2209 26.189302,1041.3436 25.763982,1041.5125 25.763982,1041.4389 Z M 16.857232,1039.9915 C 16.445182,1039.7995 16.104552,1039.5405 16.104552,1039.4192 16.104552,1039.1046 17.100392,1037.6229 17.719912,1037.0157 L 18.052992,1036.6892 18.339702,1037.183 C 18.497382,1037.4546 18.788572,1037.8495 18.986792,1038.0605 L 19.347182,1038.4443 18.725652,1038.8551 C 18.383812,1039.081 17.902022,1039.4634 17.655012,1039.7048 17.408022,1039.9462 17.200362,1040.1434 17.193572,1040.1431 17.186792,1040.1427 17.035442,1040.0745 16.857232,1039.9915 Z M 19.353002,1038.1685 C 18.996542,1037.9022 18.197712,1036.6583 18.288642,1036.5111 18.361542,1036.393 19.367882,1035.763 19.803222,1035.5629 20.357192,1035.3082 21.153702,1035.0533 21.567022,1034.9984 L 21.873572,1034.9577 22.065822,1035.4566 C 22.302452,1036.0707 22.393662,1036.4812 22.368552,1036.8191 L 22.349342,1037.0776 21.703322,1037.338 C 21.348012,1037.4812 20.727962,1037.7555 20.325402,1037.9475 19.922852,1038.1395 19.576762,1038.2957 19.556342,1038.2946 19.535912,1038.2935 19.444412,1038.2368 19.353002,1038.1685 Z M 22.564682,1036.6828 C 22.564682,1036.3128 22.429182,1035.7636 22.222522,1035.2959 22.139122,1035.1072 22.083872,1034.9398 22.099762,1034.9239 22.171402,1034.8522 23.276102,1034.8396 23.830962,1034.9041 24.483412,1034.9801 25.068682,1035.1132 25.162542,1035.2072 25.226812,1035.2715 25.261912,1036.1102 25.202812,1036.1695 25.181802,1036.1905 24.912912,1036.2752 24.605262,1036.3576 24.297632,1036.4399 23.712652,1036.6161 23.305302,1036.7491 L 22.564682,1036.9908 22.564682,1036.6828 Z"
       id="path4843-4-0"
       inkscape:connector-curvature="0" />
  </g>
</svg>
